<svg width="306" height="334" viewBox="0 0 306 334" fill="none" xmlns="http://www.w3.org/2000/svg">
<path d="M172.987 256.84C172.861 256.877 172.753 256.967 172.689 257.088C172.624 257.21 172.608 257.354 172.642 257.489C172.677 257.623 172.761 257.738 172.874 257.807C172.988 257.876 173.123 257.894 173.249 257.857C177.394 256.887 181.28 254.928 184.616 252.126C197.294 242.12 196.638 227.925 203.855 214.939C209.629 205.038 214.697 206.177 214.303 204.898C214.288 204.847 214.264 204.8 214.232 204.76C214.2 204.72 214.16 204.688 214.115 204.665C214.071 204.642 214.022 204.629 213.973 204.627C213.923 204.624 213.874 204.633 213.827 204.653C191.127 213.572 203.954 245.379 172.987 256.84ZM264.854 225.682C265.493 224.963 266.133 224.21 266.756 223.456C271.579 217.2 274.957 207.509 274.629 200.377C274.621 200.3 274.593 200.227 274.548 200.166C274.504 200.105 274.444 200.058 274.376 200.031C274.309 200.004 274.235 199.997 274.164 200.012C274.093 200.026 274.027 200.062 273.973 200.114C273.481 200.622 274.859 203.426 271.398 212.258C268.118 220.635 265.247 222.773 262.016 226.681C259.121 230.252 256.921 234.403 255.544 238.892C254.167 243.381 253.641 248.118 253.996 252.827C254.015 252.926 254.065 253.015 254.138 253.079C254.211 253.143 254.303 253.178 254.398 253.178C254.492 253.178 254.584 253.143 254.657 253.079C254.73 253.015 254.781 252.926 254.799 252.827C254.687 247.813 255.519 242.827 257.246 238.163C258.974 233.5 261.561 229.256 264.854 225.682ZM120.845 150.011C122.485 148.802 122.37 145.105 120.845 143.738C120.414 143.366 119.911 143.1 119.373 142.959C118.834 142.818 118.273 142.806 117.73 142.923C117.186 143.04 116.674 143.284 116.229 143.637C115.783 143.989 115.416 144.443 115.154 144.964C114.849 145.78 114.794 146.677 114.997 147.528C115.2 148.378 115.649 149.139 116.282 149.699C116.914 150.26 117.696 150.592 118.516 150.648C119.336 150.704 120.151 150.481 120.845 150.011ZM116.335 145.998C116.827 144 120.058 143.72 120.55 145.718C120.878 147.085 120.73 148.049 120.074 148.574C119.68 148.836 119.231 148.991 118.768 149.025C118.305 149.058 117.841 148.97 117.417 148.767C116.973 148.501 116.626 148.084 116.429 147.582C116.233 147.08 116.2 146.523 116.335 145.998ZM176.89 117.591C176.827 117.586 176.764 117.595 176.705 117.618C176.645 117.64 176.59 117.676 176.544 117.722C176.498 117.768 176.461 117.824 176.436 117.886C176.411 117.948 176.398 118.014 176.398 118.082C176.398 119.834 173.626 121.587 173.118 121.762C173.02 121.788 172.936 121.854 172.883 121.946C172.831 122.038 172.815 122.148 172.839 122.253C172.863 122.357 172.925 122.447 173.011 122.503C173.097 122.559 173.201 122.576 173.298 122.551C177.612 121.604 178.268 117.556 176.89 117.591ZM171.133 114.91C170.937 114.787 170.067 114.104 169.756 113.841C169.756 113.613 170.526 110.687 170.674 110.126C170.822 109.565 170.149 109.425 169.969 109.88C169.283 111.301 168.733 112.792 168.329 114.332C168.46 114.84 170.74 115.506 170.904 115.506C170.972 115.516 171.042 115.501 171.101 115.464C171.161 115.428 171.208 115.371 171.234 115.303C171.26 115.235 171.265 115.159 171.246 115.088C171.228 115.017 171.188 114.954 171.133 114.91ZM165.721 105.517C165.697 105.365 165.624 105.228 165.514 105.128C165.405 105.029 165.266 104.975 165.122 104.975C164.978 104.975 164.839 105.029 164.73 105.128C164.62 105.228 164.547 105.365 164.523 105.517C164.461 106.725 164.461 107.936 164.523 109.144C164.626 109.324 164.782 109.462 164.966 109.536C165.151 109.611 165.353 109.617 165.541 109.555C165.73 109.492 165.893 109.365 166.006 109.192C166.118 109.019 166.174 108.811 166.164 108.601C165.936 107.588 165.788 106.556 165.721 105.517ZM177.186 108.584C176.975 107.579 176.827 106.56 176.743 105.534C176.743 105.362 176.679 105.197 176.565 105.076C176.451 104.954 176.297 104.886 176.136 104.886C175.975 104.886 175.821 104.954 175.707 105.076C175.593 105.197 175.529 105.362 175.529 105.534C175.47 106.702 175.47 107.872 175.529 109.039C175.538 109.175 175.575 109.307 175.637 109.426C175.699 109.544 175.785 109.647 175.889 109.726C175.992 109.806 176.11 109.86 176.236 109.885C176.361 109.91 176.489 109.906 176.613 109.872C176.736 109.838 176.851 109.775 176.949 109.689C177.047 109.602 177.127 109.494 177.181 109.371C177.236 109.248 177.265 109.114 177.265 108.978C177.266 108.842 177.239 108.707 177.186 108.584Z" fill="#1842B4"/>
<path d="M305.546 84.7152C305.432 73.7975 302.004 69.4865 291.424 69.8195C288.406 69.8195 234.592 70.3978 230.737 70.538C228.153 70.5387 225.597 71.1053 223.225 72.2028C221.864 72.7811 214.745 76.5839 213.958 78.5992C213.105 80.0362 214.106 120.973 213.958 129.42C212.819 128.727 211.647 128.095 210.448 127.527C210.232 126.376 209.772 125.293 209.104 124.361C208.436 123.428 207.577 122.671 206.594 122.147C205.085 121.517 203.149 122.27 202.034 121.131C200.919 119.992 202.92 119.379 203.133 117.626C203.126 116.411 202.994 115.2 202.739 114.016C201.751 107.664 200.37 101.388 198.606 95.2299C197.13 90.1653 195.588 85.8719 191.34 83.1205C191.34 74.6037 190.536 24.6941 190.093 22.0479C189.657 19.4363 188.353 17.0806 186.422 15.4131C184.491 13.7456 182.061 12.8783 179.58 12.9703C179.416 12.9703 66.5379 12.9703 66.4067 13.1104C61.8962 15.9845 60.6825 22.3984 60.3872 27.13C60.2888 29.4958 62.2242 77.2674 62.9951 92.4435C55.0074 92.6188 14.6587 93.7754 12.3461 95.0897C7.11386 96.4566 1.32399 100.347 0.192258 106.673C-0.513024 110.739 0.913942 188.845 1.3896 192.543C1.73024 196.537 3.40051 200.268 6.09694 203.058C9.03288 205.809 13.0349 206.317 16.5614 206.457L91.4032 204.95C84.088 222.65 75.6574 247.745 70.0807 263.359C70.0545 263.404 70.0406 263.455 70.0406 263.508C70.0406 263.561 70.0545 263.612 70.0807 263.657C71.59 265.241 73.2377 266.667 75.0013 267.916C72.3278 277.677 72.623 278.22 72.0326 279.009C66.9644 285.65 60.8465 289.523 54.8106 290.154C52.0059 290.487 49.2339 291.013 48.2498 293.922C47.4461 296.568 49.5784 298.338 52.0715 299.074C53.7117 299.547 64.8978 302.193 66.5543 302.404C68.0223 302.667 69.5284 302.308 70.7532 301.405C71.9342 300.476 75.8214 295.569 77.314 294.097C74.6077 308.117 72.7215 303.648 79.1674 306.645C79.2574 306.696 79.3569 306.725 79.4588 306.73C79.5607 306.736 79.6624 306.716 79.7566 306.675C79.8507 306.633 79.935 306.569 80.0033 306.488C80.0716 306.407 80.1222 306.311 80.1515 306.206C81.2997 302.702 89.0741 282.671 92.2397 277.466C93.0106 298.636 92.8794 297.532 93.1582 297.619C94.2571 297.917 95.4545 298.198 96.6846 298.461C96.6846 301.405 96.7666 304.419 96.9963 307.714C96.9963 307.819 96.8651 307.994 96.7338 308.274C92.6662 317.808 88.1064 321.698 83.1531 324.046C80.9552 325.098 77.9209 326.535 78.0029 329.777C78.0029 332.581 80.6928 333.474 83.3007 333.369C87.2207 333.229 92.2889 332.668 94.5852 332.546C101.146 332.125 101.31 330.793 104.098 324.782C104.738 323.398 105.492 321.751 105.919 320.944C106.69 330.793 105.673 332.248 106.936 332.178C110.364 331.985 111.856 332.984 111.856 331.669C111.988 328.059 113.497 313.865 114.284 310.377C114.284 309.974 114.021 309.746 113.628 309.659C114.12 306.399 115.268 299.985 115.416 298.811C116.236 298.688 117.056 298.548 117.695 298.391C117.876 298.391 117.695 299.319 120.467 287.105C140.379 295.499 161.62 297.514 180.679 292.73C181.351 295.517 186.223 314.513 188.88 322.837C189.785 325.557 190.991 328.151 192.472 330.565C192.849 330.951 193.489 331.634 194.112 331.634C194.735 331.634 195.424 330.706 195.588 329.759C195.752 328.813 193.177 301.177 192.308 291.206C196.205 290.174 199.983 288.687 203.576 286.772L208.89 305.628C209.046 305.909 209.28 306.131 209.559 306.262C209.839 306.393 210.15 306.427 210.449 306.36C210.748 306.292 211.02 306.126 211.225 305.884C211.431 305.643 211.561 305.339 211.596 305.015L211.088 282.426C213.571 280.697 215.949 278.8 218.206 276.748C219.231 277.807 220.384 278.714 221.634 279.447C221.763 279.522 221.914 279.541 222.055 279.498C222.197 279.456 222.316 279.355 222.389 279.219C223.753 277.015 225.283 274.935 226.965 272.998C226.637 275.258 225.997 279.885 225.915 281.322C225.913 281.414 225.928 281.507 225.961 281.593C225.993 281.679 226.041 281.757 226.102 281.823C226.164 281.888 226.237 281.94 226.318 281.974C226.398 282.009 226.484 282.025 226.571 282.023C228.313 281.965 230.052 282.207 231.721 282.741C226.374 285.493 223.931 287.823 224.259 289.751C224.899 293.193 225.799 296.575 226.949 299.863C227.834 302.596 228.753 305.435 231.508 306.627C244.138 312.34 262.901 308.169 275.58 302.474C286.34 297.97 287.914 290.68 286.963 280.375C286.766 278.413 284.634 278.185 280.156 278.308L291.064 263.57C294.344 259.381 291.49 259.521 290.457 251.302C291.445 252.867 292.632 254.276 293.983 255.491C294.063 255.558 294.156 255.607 294.255 255.634C294.353 255.661 294.456 255.666 294.557 255.648C295 255.561 294.656 255.806 298.723 247.99C298.801 247.848 298.83 247.681 298.806 247.519C298.782 247.356 298.706 247.207 298.592 247.097C296.804 245.519 292.49 241.839 292.49 241.839C294.714 241.277 296.905 240.575 299.051 239.736C299.563 239.595 300.026 239.301 300.387 238.888C300.747 238.475 300.989 237.961 301.085 237.406C301.298 236.039 301.315 208.508 301.348 204.758C301.348 204.144 300.429 203.969 300.331 204.635C298.412 218.532 289.604 230.098 278.352 233.55C278.713 231.991 279.631 228.608 279.123 227.679C277.268 226.432 275.294 225.398 273.235 224.595C275.285 223.351 280.025 220.109 280.369 219.11C280.583 218.532 279.533 191.492 279.484 188.53C279.476 188.408 279.432 188.292 279.358 188.198C279.284 188.105 279.184 188.038 279.073 188.009C278.962 187.98 278.845 187.989 278.739 188.036C278.633 188.082 278.543 188.163 278.483 188.267C275.307 194.967 270.61 200.709 264.82 204.968C264.148 205.459 259.309 208.21 258.932 208.578C257.718 209.822 259.227 211.347 259.867 212.311C260.326 212.977 261.901 215.237 262.213 215.71C256.439 216.464 254.914 214.343 254.618 215.71C254.051 217.496 253.286 219.202 252.339 220.792C252.677 222.328 253.11 223.839 253.634 225.314C252.673 225.483 251.693 225.483 250.731 225.314C250.56 225.274 250.381 225.305 250.229 225.399C250.078 225.493 249.964 225.643 249.911 225.822C249.452 227.417 249.091 228.749 248.763 229.993C246.775 226.39 244.584 222.92 242.202 219.601C241.038 210.102 236.839 199.01 227.965 197.537C234.641 194.558 239.02 186.9 240.07 179.137C243.219 179.137 288.718 178.997 290.555 179.137C300.511 179.435 304.956 175.369 305.891 164.521C306.268 160.193 305.546 85.5038 305.546 84.7152ZM79.0526 293.361C79.0939 293.175 79.0679 292.98 78.9796 292.814C78.8913 292.648 78.7474 292.524 78.5769 292.467C77.2484 291.942 76.2315 293.186 75.4934 294.08C73.6249 296.51 71.5733 298.772 69.3591 300.844C68.1289 301.475 53.8101 298.303 52.0223 297.707C51.0599 297.474 50.2227 296.844 49.6932 295.955C49.486 295.308 49.5086 294.602 49.7566 293.972C50.0046 293.342 50.4607 292.832 51.0381 292.537C52.3011 291.714 53.236 291.784 56.7788 291.083C60.3216 290.382 63.8316 289.698 69.9987 283.495C70.8579 282.615 71.6581 281.673 72.3934 280.673C73.4175 283.106 75.1413 285.126 77.314 286.439C80.2248 287.82 83.4756 288.158 86.5811 287.403C84.9409 290.908 80.4139 301.86 79.2822 305.208C78.3801 304.822 77.4616 304.471 76.5595 304.191C77.5754 300.633 78.4077 297.017 79.0526 293.361ZM223.094 197.397C220.787 197.503 218.496 197.855 216.254 198.449C208.908 199.336 201.522 199.792 194.128 199.816C193.046 192.806 193.374 194.103 193.095 192.158C192.98 191.316 192.816 190.16 193.39 189.792C201.247 186.041 209.415 182.642 217.239 178.979C218.879 180.258 219.01 180.101 219.158 179.996C219.228 179.915 219.267 179.808 219.267 179.698C219.267 179.587 219.228 179.481 219.158 179.4C218.517 178.709 217.844 178.053 217.14 177.437C210.844 171.421 206.458 163.458 204.593 154.655C204.571 154.551 204.511 154.46 204.427 154.402C204.342 154.345 204.24 154.325 204.142 154.349C204.044 154.372 203.959 154.436 203.905 154.526C203.851 154.616 203.833 154.726 203.855 154.83C205.244 163.985 209.676 172.297 216.336 178.243L193.718 188.232C193.064 188.437 192.49 188.861 192.078 189.441C190.946 189.112 189.923 188.451 189.126 187.531C184.861 183.868 183.155 186.374 177.644 191.036C177.112 191.465 176.607 191.934 176.135 192.438C173.222 189.669 170.319 186.889 167.426 184.096C166.688 182.94 159.963 158.16 157.208 148.206C159.338 142.688 162.774 137.857 167.18 134.187C167.689 135.849 168.331 137.461 169.099 139.006C170.329 140.268 171.92 139.654 173.462 139.251C173.037 140.193 172.792 141.216 172.741 142.26C172.691 143.304 172.835 144.349 173.167 145.332C174.328 148.114 176.141 150.528 178.432 152.342C184.041 157.599 183.762 157.459 184.09 157.459C184.242 157.451 184.385 157.384 184.494 157.271C184.603 157.159 184.669 157.007 184.681 156.846C185.238 150.73 187.075 149.047 192.258 147.102C195.093 146.114 197.492 144.052 199.002 141.305C200.513 138.558 201.031 135.316 200.459 132.189C203.888 132.217 207.303 131.745 210.612 130.787C210.769 130.749 210.905 130.647 210.991 130.503C211.077 130.358 211.106 130.183 211.071 130.016C211.071 129.718 210.957 129.367 210.875 128.999C234.805 141.424 249.386 180.136 230.081 194.523C227.982 196.025 225.594 197.007 223.094 197.397ZM228.605 199.395C232.82 200.359 236.347 204.144 238.643 210.803C249.6 242.435 224.062 280.761 192.357 289.663C192.16 287.543 191.078 275.241 190.864 274.329C190.707 273.525 190.274 272.813 189.651 272.332C187.633 271.14 184.172 272.454 182.335 273.611C180.584 274.853 179.019 276.372 177.694 278.115C177.694 278.676 179.99 289.243 180.482 291.398C160.547 295.853 139.826 293.951 120.894 285.931C123.813 272.963 127.684 255.21 128.767 249.708C140.051 253.458 155.912 253.107 156.076 253.09C156.128 253.075 156.175 253.042 156.208 252.996C156.241 252.95 156.259 252.894 156.259 252.836C156.259 252.778 156.241 252.721 156.208 252.675C156.175 252.63 156.128 252.597 156.076 252.582C146.973 249.34 139.116 240.981 133.966 229.029C126.044 211.171 109.609 211.382 103.213 220.267C93.9619 233.095 92.4693 270.422 92.3217 274.925C91.7477 276.047 88.4509 282.934 87.2043 285.738C77.3632 288.244 74.5585 282.233 73.3611 279.657C73.1643 279.219 73.2627 280.375 76.3135 268.862C77.9537 269.721 89.6154 274.119 89.6318 272.822C89.763 257.927 93.1418 222.492 102.294 214.343C108.855 208.595 123.042 209.594 129.324 214.571C133.318 218.466 136.585 223.134 138.952 228.328C144.217 240.402 153.288 249.357 163.358 251.6C176.267 250.391 191.242 228.416 195.522 214.361C203.428 203.654 216.468 197.52 228.605 199.395ZM254.274 270.667C254.296 270.771 254.356 270.863 254.44 270.92C254.525 270.978 254.627 270.997 254.725 270.974C254.823 270.95 254.908 270.887 254.962 270.796C255.016 270.706 255.034 270.596 255.012 270.492C253.979 264.849 251.059 259.977 249.222 254.72C246.04 245.73 248.353 236.074 251.043 226.943C252.243 227.183 253.483 227.011 254.586 226.453C255.488 225.699 254.766 224.42 253.749 221.195C254.585 219.844 255.242 218.376 255.701 216.832C258.265 217.48 260.93 217.516 263.508 216.937C263.608 216.91 263.701 216.858 263.779 216.785C263.856 216.712 263.917 216.621 263.955 216.518C263.994 216.416 264.009 216.305 264 216.195C263.99 216.085 263.957 215.979 263.902 215.886C262.803 214.343 259.9 210.12 259.752 209.805C259.605 209.489 259.752 209.524 260.228 209.296C268.068 205.484 274.497 198.992 278.5 190.843C278.697 196.574 279.336 217.901 279.156 218.76C276.607 220.73 273.92 222.488 271.119 224.017C270.996 224.089 270.897 224.198 270.833 224.331C270.769 224.464 270.743 224.614 270.759 224.762C270.775 224.91 270.831 225.05 270.922 225.164C271.012 225.278 271.132 225.36 271.266 225.401C273.587 226.249 275.836 227.304 277.991 228.556C278.286 229.064 277.253 233.077 277.073 234.111L275.433 234.461C275.269 234.507 275.129 234.618 275.04 234.771C274.952 234.925 274.922 235.109 274.957 235.285C275.383 238.387 276.351 246.028 276.351 246.028C271.644 241.349 271.676 238.755 270.66 238.65C270.559 238.636 270.456 238.65 270.362 238.69C270.267 238.73 270.183 238.794 270.118 238.878C262.406 248.439 258.076 260.587 257.883 273.208C257.901 273.303 257.949 273.388 258.019 273.449C258.09 273.51 258.177 273.543 258.268 273.543C258.358 273.543 258.446 273.51 258.516 273.449C258.587 273.388 258.635 273.303 258.653 273.208C259.271 261.267 263.417 249.842 270.496 240.577C272.127 243.58 274.268 246.231 276.81 248.393C276.919 248.496 277.055 248.56 277.199 248.575C277.343 248.591 277.488 248.557 277.613 248.48C277.739 248.402 277.838 248.284 277.897 248.143C277.956 248.002 277.972 247.844 277.942 247.692C277.942 247.692 276.761 239.158 276.302 235.688C287.471 233.568 297.067 223.421 300.298 210.488C300.298 217.691 300.068 235.548 300.068 235.723C300.068 236.862 300.068 237.949 299.117 238.457C296.427 239.467 293.689 240.326 290.916 241.033C290.802 241.065 290.699 241.129 290.616 241.218C290.534 241.308 290.475 241.419 290.447 241.541C290.418 241.663 290.421 241.79 290.454 241.911C290.488 242.031 290.551 242.139 290.637 242.225C291.408 242.891 295.836 246.764 297.296 248.008C297.296 248.008 295.295 252.091 294.278 254.106C292.615 252.462 291.238 250.516 290.211 248.358C290.144 248.236 290.042 248.14 289.919 248.085C289.797 248.031 289.661 248.02 289.533 248.056C289.404 248.092 289.29 248.172 289.208 248.283C289.126 248.395 289.081 248.532 289.079 248.674C289.538 260.38 293.048 258.855 290.145 262.693C280.14 276.135 278.385 280.481 267.609 283.88C269.774 273.366 277.188 269.107 280.156 261.519C281.796 257.366 281.436 252.757 282.731 248.586C283.633 245.691 285.108 243.038 287.055 240.807C289.003 238.575 291.376 236.817 294.016 235.653C294.112 235.618 294.19 235.544 294.235 235.447C294.28 235.35 294.286 235.238 294.254 235.136C294.221 235.034 294.152 234.95 294.061 234.902C293.97 234.854 293.866 234.847 293.77 234.882C290.333 236.178 287.299 238.468 285.009 241.497C282.718 244.526 281.26 248.176 280.796 252.038C280.091 257.418 280.238 260.065 277.089 264.779C273.612 269.948 267.92 274.522 266.083 284.318C263.231 285.077 260.312 285.512 257.374 285.615C257.03 282.478 255.225 280.638 253.946 280.568C252.765 278.36 240.316 258.119 235.724 253.686C240.802 243.921 243.137 232.798 242.448 221.651C244.417 224.753 247.779 230.571 248.369 231.71C242.645 255.298 251.994 258.838 254.274 270.667ZM228.408 271.438C228.408 271.314 228.374 271.193 228.312 271.09C228.249 270.986 228.16 270.903 228.055 270.852C227.949 270.8 227.833 270.782 227.718 270.798C227.603 270.815 227.496 270.867 227.408 270.947C225.31 273.172 223.406 275.594 221.716 278.185C220.75 277.583 219.844 276.878 219.01 276.082C222.974 272.401 226.569 268.29 229.737 263.815C247.156 286.141 246.319 285.493 246.811 285.072C246.85 285.044 246.883 285.008 246.908 284.966C246.933 284.924 246.95 284.877 246.958 284.828C246.965 284.779 246.964 284.728 246.952 284.68C246.941 284.632 246.921 284.586 246.893 284.546C245.745 282.689 234.051 267.022 230.491 262.623C232.181 260.128 233.726 257.523 235.117 254.825C241.677 261.677 251.863 279.71 252.814 281.409C251.909 282.801 251.485 284.487 251.617 286.176C249.545 286.794 247.368 286.896 245.253 286.474C242.744 285.948 233.362 281.024 227.211 280.831C227.605 278.921 228.228 273.085 228.457 271.438H228.408ZM185.468 273.664H185.747C187.026 273.348 189.027 272.875 189.503 274.259C189.749 275.206 194.702 327.481 194.702 329.093C194.729 329.347 194.703 329.604 194.626 329.847C194.55 330.089 194.425 330.31 194.26 330.495C189.995 328.743 179.498 282.251 179.088 278.308C180.741 276.123 182.96 274.507 185.468 273.664ZM10.8207 190.913C10.8207 186.9 8.3276 107.339 8.57363 104.465C9.00008 99.0502 10.8207 96.6143 14.8392 96.0535C19.0872 95.1773 58.747 93.9681 63.0771 93.8455C63.1755 95.5979 63.2576 96.8246 63.2904 97.0524C63.4722 98.4312 64.0876 99.7028 65.0355 100.658C65.9834 101.614 67.2074 102.196 68.5062 102.31C68.5062 102.135 67.4236 102.31 101.31 102.432C101.31 107.9 101.622 133.591 101.638 134.8C91.9937 135.186 82.0541 135.606 80.1515 135.799C79.8891 135.799 79.6595 136.307 79.7579 136.553C82.6118 144.088 95.3233 174.686 98.8825 182.537C99.2145 183.429 99.7849 184.197 100.523 184.745C100.982 185.481 101.523 186.304 102.163 187.128C96.9635 191.562 95.0936 196.469 92.0757 203.654C78.1833 203.969 21.8756 205.213 20.6126 205.161C17.1026 205.003 14.6259 203.916 13.0842 201.848C10.7387 198.869 10.8371 194.804 10.8207 190.913ZM200.574 120.921C200.919 122.253 202.214 122.971 204.215 123.024C207.66 122.866 209.136 126.038 209.759 129.683C206.406 130.383 203.005 130.788 199.59 130.892C199.491 130.893 199.394 130.919 199.306 130.967C199.218 131.015 199.142 131.084 199.083 131.169C199.024 131.254 198.984 131.352 198.967 131.456C198.95 131.56 198.955 131.667 198.983 131.768C199.507 133.769 199.512 135.884 198.998 137.887C198.484 139.89 197.469 141.707 196.064 143.142C191.652 147.68 184.582 145.175 183.549 155.637C182.073 154.27 176.611 149.31 175.496 147.856C173.577 145.49 172.806 141.564 174.774 139.094C178.989 138.358 183.248 137.953 187.518 137.884C187.614 137.884 187.706 137.844 187.773 137.771C187.841 137.699 187.879 137.601 187.879 137.499C187.879 137.397 187.841 137.299 187.773 137.226C187.706 137.154 187.614 137.113 187.518 137.113C182.606 136.741 177.668 137.119 172.855 138.235C171.018 138.778 170.116 139.164 169.296 137.324C168.886 136.395 166.442 128.439 166.015 126.967C165.261 125.056 165.72 125.635 167.098 124.724C168.448 125.942 169.963 126.935 171.592 127.668C171.592 127.878 172.445 130.664 172.576 131.173C172.632 131.594 172.829 131.979 173.131 132.256C173.433 132.533 173.818 132.684 174.216 132.68C178.041 133.055 181.895 132.457 185.462 130.934C189.028 129.411 192.206 127.006 194.735 123.917C194.785 123.844 194.808 123.753 194.8 123.663C194.791 123.572 194.751 123.488 194.688 123.427C194.625 123.366 194.543 123.332 194.457 123.332C194.372 123.332 194.29 123.366 194.227 123.427C191.686 126.17 188.634 128.312 185.269 129.713C181.903 131.113 178.3 131.742 174.692 131.558C173.544 131.47 173.692 131.733 172.724 128.053C177.152 129.385 178.268 127.58 176.693 129.245C176.642 129.31 176.613 129.393 176.613 129.478C176.612 129.564 176.639 129.647 176.69 129.713C176.74 129.779 176.811 129.825 176.889 129.842C176.968 129.859 177.049 129.846 177.12 129.806C183.086 125.04 187.438 118.329 189.519 110.686C189.534 110.637 189.54 110.585 189.536 110.533C189.531 110.481 189.517 110.431 189.494 110.385C189.471 110.339 189.44 110.299 189.402 110.266C189.364 110.234 189.32 110.21 189.273 110.196C188.42 109.88 188.995 111.685 184.992 118.678C183.352 111.668 184.451 104.255 182.68 97.2102C182.656 97.1102 182.596 97.0246 182.513 96.972C182.43 96.9194 182.33 96.9042 182.237 96.9298C182.143 96.9553 182.063 97.0195 182.014 97.1083C181.965 97.197 181.951 97.303 181.975 97.4029C182.262 98.8938 182.448 100.405 182.532 101.924C179.039 98.2266 171.658 92.3208 165.835 93.6702C164.581 93.7115 163.392 94.279 162.526 95.2498C161.66 96.2207 161.188 97.5167 161.21 98.8575C159.799 96.8246 160.783 93.7228 162.063 92.0054C165.441 87.2913 171.444 84.9956 177.431 83.2432C182.729 81.7361 189.815 81.9464 193.833 87.0635C195.576 89.6173 196.836 92.5105 197.54 95.5804C199.635 102.498 201.096 109.618 201.903 116.838C201.965 117.129 201.953 117.432 201.866 117.716C201.779 118 201.622 118.254 201.411 118.45C201.083 118.749 200.834 119.134 200.688 119.567C200.541 120 200.502 120.467 200.574 120.921ZM100.08 182.116C98.538 178.611 83.3007 142.511 80.8732 136.553C86.3022 136.553 147.563 134.152 148.629 134.117C150.712 141.267 162.85 184.447 162.85 184.815C162.85 184.815 148.351 185.2 140.527 185.533C127.323 178.418 115.104 179.189 106.214 184.219C101.195 183.991 100.966 184.096 100.08 182.116ZM162.407 109.425C162.177 104.167 162.407 100.505 163.178 100.137C165.999 98.7698 171.264 98.3843 177.12 100.365C177.858 100.627 180.219 101.942 182.598 103.011C182.86 108.619 182.598 114.559 184.238 119.992C182.788 122.708 180.926 125.148 178.727 127.212C168.804 128.614 162.85 120.132 162.374 109.425H162.407ZM177.464 214.221C177.07 215.027 183.746 220.389 184.468 220.968C186.829 223.351 183.943 224.648 181.548 222.352C168.427 209.752 157.24 195.312 142.659 186.69C151.155 186.392 161.669 186.059 163.473 186.041C165.294 187.917 186.436 209.069 191.898 214.081C176.644 214.203 177.612 213.94 177.431 214.221H177.464ZM193.571 213.975C193.407 213.818 165.687 187.058 164.621 185.726C163.998 184.604 152.5 142.914 149.86 134.52C151.48 135.7 152.681 137.428 153.271 139.426C154.255 142.423 165.425 182.379 165.474 182.572C165.608 183.542 166.014 184.446 166.639 185.165C170.952 189.599 189.257 207.334 195.211 212.591C194.866 213.047 194.522 213.502 194.194 213.975H193.571ZM192.373 197.134C189.519 196.889 188.617 196.539 187.912 197.467C187.682 197.853 187.026 198.712 186.19 198.519C186.045 198.483 185.908 198.415 185.789 198.32C185.669 198.225 185.57 198.104 185.496 197.966C185.422 197.828 185.375 197.675 185.359 197.517C185.343 197.359 185.358 197.199 185.402 197.047C186.206 196.241 187.043 195.54 187.797 194.681C187.838 194.62 187.858 194.547 187.855 194.473C187.851 194.399 187.825 194.328 187.78 194.271C187.735 194.215 187.673 194.176 187.605 194.162C187.537 194.147 187.466 194.157 187.404 194.19C186.567 194.769 185.763 195.697 184.812 196.311C184.733 196.312 184.656 196.331 184.585 196.368C184.515 196.404 184.452 196.456 184.402 196.521C184.205 196.606 183.993 196.642 183.782 196.625C183.57 196.608 183.365 196.539 183.183 196.424C183 196.309 182.845 196.15 182.729 195.96C182.614 195.77 182.541 195.554 182.516 195.329C182.516 193.927 183.926 192.999 184.746 191.965C185.074 191.614 184.582 191.089 184.238 191.421C183.359 192.214 182.542 193.082 181.794 194.015C180.849 194.336 179.885 194.588 178.907 194.769C178.464 194.769 178.907 195.067 176.972 193.297C178.99 191.274 181.187 189.467 183.533 187.899C187.518 185.095 188.256 189.949 191.848 190.51C191.845 192.73 192.021 194.947 192.373 197.134ZM196.064 211.575L179.547 195.803C180.146 195.676 180.737 195.512 181.318 195.312C181.305 195.692 181.375 196.071 181.522 196.418C181.67 196.764 181.891 197.07 182.167 197.309C182.444 197.549 182.77 197.717 183.118 197.799C183.466 197.881 183.827 197.876 184.172 197.783C184.238 198.154 184.385 198.504 184.601 198.804C184.817 199.103 185.097 199.344 185.416 199.506C185.736 199.669 186.087 199.748 186.441 199.738C186.795 199.728 187.142 199.628 187.453 199.448C189.716 198.344 187.453 197.923 191.11 198.274C191.586 198.274 192.094 198.379 192.587 198.396C192.734 199.22 192.882 199.973 193.046 200.692C193.085 200.835 193.167 200.961 193.28 201.049C193.393 201.138 193.529 201.185 193.669 201.183C222.996 200.517 208.595 196.188 196.031 211.575H196.064ZM156.699 146.314C154.846 139.672 153.878 134.309 150.138 132.942C150.138 133.153 151.533 132.715 102.983 134.695C102.983 126.161 102.639 105.517 102.589 102.38H161.39C160.931 109.968 161.39 118.152 166.311 123.795C165.72 124.04 164.671 124.566 164.424 125.004C165.029 127.836 165.841 130.614 166.852 133.31C162.451 136.629 158.931 141.109 156.634 146.314H156.699ZM149.958 92.1456C149.958 89.6922 149.433 76.4963 149.318 74.0779H153.501C153.501 76.5664 153.812 89.7097 153.911 92.1281C152.599 92.093 151.27 92.1105 149.958 92.1456ZM125.929 92.6713C125.946 87.9047 125.372 47.5985 125.29 42.3412H129.472C129.472 55.6597 129.833 88.9737 129.898 92.6012L125.929 92.6713ZM100.047 49.1056H104.246C104.246 60.6192 104.59 89.6922 104.672 93.1445H100.703C100.719 88.8335 100.145 53.9073 100.047 49.1056ZM64.4385 96.2814C64.2089 94.7918 62.3062 48.1242 61.5354 30.2493C61.3549 24.7467 62.7163 17.9822 66.1771 14.8454C66.1771 27.1125 67.6533 94.8093 67.9813 100.943C67.016 100.645 66.1591 100.039 65.5257 99.2057C64.8924 98.3724 64.513 97.3519 64.4385 96.2814ZM214.926 81.7186C214.791 80.5746 215.047 79.4171 215.648 78.459C216.932 77.3789 218.31 76.434 219.764 75.6376C218.124 78.792 218.551 77.9158 219.42 133.293C218.067 132.191 216.66 131.167 215.205 130.226C215.041 121.394 214.959 89.2891 214.975 81.7186H214.926ZM229.261 101.188C230.023 100.032 231.036 99.0907 232.213 98.4438C233.39 97.7969 234.695 97.4638 236.019 97.473C242.694 97.473 245.122 105.955 246.434 112.859C247.582 118.275 247.664 124.653 251.355 129.07C268.511 145.683 269.807 122.498 280.238 123.392C283.519 123.795 285.7 127.002 288.046 129.315C289.048 130.518 290.455 131.25 291.96 131.352C293.464 131.454 294.946 130.917 296.083 129.858V154.76C292.048 154.76 240.808 154.357 235.182 154.427C233.813 151.365 232.199 148.433 230.36 145.665C230.557 143.545 229.343 103.081 229.31 101.188H229.261ZM235.822 155.619C243.367 155.742 291.244 155.882 296.214 155.882C296.221 156.549 296.259 157.216 296.329 157.88C296.341 158.021 296.401 158.152 296.497 158.249C296.594 158.346 296.721 158.402 296.853 158.405C297.821 158.405 297.378 160 297.214 112.474C297.214 112.358 297.171 112.246 297.094 112.164C297.017 112.082 296.913 112.036 296.804 112.036C296.695 112.036 296.591 112.082 296.514 112.164C296.437 112.246 296.394 112.358 296.394 112.474C296.394 115.593 296.214 125.898 296.197 127.93C295.821 128.564 295.309 129.093 294.705 129.475C294.1 129.856 293.419 130.079 292.718 130.125C292.017 130.171 291.316 130.039 290.672 129.74C290.028 129.441 289.46 128.983 289.013 128.404C284.273 123.146 279.582 118.765 272.726 125.53C267.117 131.716 264.033 136.938 256.324 131.593C253.203 129.816 250.85 126.812 249.764 123.216C247.172 113.28 247.894 97.9462 236.937 95.9134C235.472 95.7534 233.993 95.9797 232.629 96.5724C231.265 97.1651 230.058 98.1061 229.114 99.3131C229.114 96.6494 228.933 94.0558 228.835 91.357C228.835 91.2455 228.793 91.1385 228.719 91.0596C228.646 90.9807 228.545 90.9364 228.441 90.9364C228.337 90.9364 228.237 90.9807 228.163 91.0596C228.089 91.1385 228.047 91.2455 228.047 91.357C228.047 94.2661 228.9 134.888 229.163 143.808C226.635 140.273 223.729 137.068 220.503 134.257C220.503 127.58 219.945 84.2246 219.879 81.5433C219.781 76.6715 221.601 73.8501 225.8 72.676C229.245 71.6595 291.178 70.6431 297.067 71.5018C300.97 72.0276 303.201 76.1108 303.759 79.6507C304.447 84.0493 304.644 156.758 304.661 157.722C304.792 166.309 303.841 176.105 295.476 177.314C293.589 177.595 246.926 177.717 240.152 177.647C240.362 170.046 238.889 162.498 235.855 155.619H235.822ZM187.797 19.2089C189.765 22.8891 188.65 21.8727 190.044 82.402C183.254 79.125 173.642 82.1392 167.082 85.9069V33.982C167.082 33.579 167.934 33.7016 162.161 33.7016C161.8 33.7016 161.833 30.0916 163.047 88.816C162.062 89.7652 161.207 90.8563 160.504 92.058H154.993C154.993 89.7798 154.37 73.6223 154.304 73.4821C154.286 73.391 154.238 73.3097 154.169 73.2522C154.1 73.1947 154.015 73.1644 153.927 73.1666C152.155 73.1031 150.381 73.1441 148.613 73.2893C148.561 73.3275 148.519 73.3805 148.493 73.4423C148.467 73.5042 148.457 73.5725 148.465 73.6398C148.465 75.3923 148.761 89.6221 148.875 92.1456L142.692 92.2858C143.004 62.3541 143.118 63.9313 142.692 63.8962C138.247 64.089 138.149 64.0014 138.149 64.3519V92.3909L130.932 92.5487C130.932 88.6407 130.374 44.4792 130.259 41.9206C130.264 41.8054 130.228 41.6924 130.158 41.6046C130.088 41.5168 129.989 41.4606 129.882 41.4474C129.882 41.4474 124.748 41.4474 124.584 41.6227C124.109 42.0257 124.847 90.6911 124.847 92.6889L117.056 92.8466V66.6826C116.998 66.6582 116.933 66.6582 116.875 66.6826C112.348 66.6826 112.398 66.6826 112.398 67.0681V92.9517L105.738 93.162C105.279 47.914 104.902 48.7376 105.066 48.7376C105.067 48.6253 105.029 48.5168 104.959 48.4327C104.889 48.3486 104.793 48.2949 104.689 48.282C104.689 48.282 99.5878 48.282 99.4237 48.4222C98.8661 48.7902 99.6534 90.1829 99.6534 93.3022L90.6323 93.4775C90.6815 25.1848 90.8619 28.3216 90.4355 28.3216L86.417 28.4794C86.1382 28.4794 86.2366 24.291 86.2366 93.5476C79.479 93.6878 79.6759 93.5476 79.5774 93.8279C79.5459 93.8826 79.5283 93.9451 79.5264 94.0093C79.5245 94.0734 79.5383 94.137 79.5665 94.1937C79.5947 94.2504 79.6362 94.2982 79.6871 94.3324C79.7379 94.3666 79.7963 94.386 79.8563 94.3887C89.8122 94.3887 150.106 93.7403 159.93 93.4249C158.946 96.1061 159.127 99.0677 161.407 100.627V101.013C151.926 101.311 70.8024 101.013 69.3427 101.013C69.3427 98.7173 67.5057 18.543 67.4893 14.0568C78.8558 14.0568 179.022 14.2145 181.63 14.6701C182.908 14.8914 184.125 15.4133 185.192 16.1983C186.258 16.9832 187.148 18.0116 187.797 19.2089ZM9.01648 97.8936C7.13026 100.803 7.03185 104.588 7.03185 108.251C7.03185 109.057 9.32812 195.312 9.67255 197.415C9.86872 198.941 10.3683 200.405 11.1378 201.707C11.9073 203.01 12.9289 204.122 14.1339 204.968C12.2059 204.864 10.3212 204.32 8.60643 203.373C4.96521 201.235 3.58745 196.837 3.09539 194.401C2.22609 190.02 1.07796 114.77 1.27478 110.879C1.15997 104.43 3.21021 100.943 8.98368 97.8936H9.01648ZM255.045 296.077C261.61 295.588 268.041 293.855 274.038 290.96C278.303 288.857 283.617 285.528 285.815 282.881C286.159 291.153 284.585 296.498 276.63 300.406C266.1 305.663 241.12 312.112 230.327 304.419C229.36 303.42 227.047 295.832 226.128 292.327C230.836 295.674 244.548 296.971 255.012 296.077H255.045ZM106.706 319.034C105.328 318.912 104.672 320.384 104.213 321.453C100.375 330.215 100.424 330.776 96.5206 331.056C95.2905 331.144 83.7107 332.16 82.8578 332.16C79.8727 332.388 78.2161 330.197 80.3319 327.516C81.5381 326.544 82.8768 325.776 84.3012 325.238C88.8609 322.977 96.0778 317.001 97.6687 309.606C99.3151 311.673 101.561 313.091 104.049 313.637C107.129 313.99 110.236 313.31 112.939 311.692C112.316 315.477 110.872 327.271 110.692 330.968C109.733 330.861 108.769 330.814 107.805 330.828C107.789 329.829 107.477 319.104 106.673 319.034H106.706ZM112.742 310.009C110.611 311.62 108.053 312.461 105.443 312.41C104.062 312.299 102.718 311.885 101.493 311.195C100.269 310.505 99.19 309.552 98.3248 308.397C98.3248 307.854 98.1444 301.983 98.1936 298.829C103.508 299.276 108.842 299.388 114.169 299.162C113.907 300.704 113.07 306.96 112.709 310.009H112.742Z" fill="#1842B4"/>
<path d="M276.023 83.8039C276.115 83.7838 276.199 83.73 276.259 83.6518C276.319 83.5735 276.351 83.4756 276.351 83.3745C276.351 83.2735 276.319 83.1755 276.259 83.0973C276.199 83.019 276.115 82.9653 276.023 82.9452H273.267C252.65 83.6286 253.323 83.6111 253.339 84.2245C253.355 84.8378 252.716 84.978 276.023 83.8039ZM276.712 87.9046C273.038 87.9046 258.67 88.1149 254.979 88.4303C254.85 88.4543 254.732 88.5264 254.648 88.6338C254.563 88.7412 254.517 88.877 254.517 89.0174C254.517 89.1578 254.563 89.2936 254.648 89.401C254.732 89.5084 254.85 89.5805 254.979 89.6045C258.735 89.6045 273.021 88.8159 276.728 88.6581C276.808 88.6376 276.879 88.5883 276.93 88.5184C276.98 88.4486 277.007 88.3624 277.005 88.2743C277.003 88.1862 276.973 88.1014 276.919 88.0342C276.866 87.9669 276.793 87.9212 276.712 87.9046ZM273.103 94.3536C270.545 94.4587 262.327 94.3536 254.487 94.3536C254.313 94.3536 254.146 94.4274 254.023 94.5589C253.9 94.6904 253.831 94.8687 253.831 95.0546C253.831 95.2405 253.9 95.4188 254.023 95.5502C254.146 95.6817 254.313 95.7555 254.487 95.7555C256.127 95.8782 271.512 95.1948 273.12 95.1247C273.215 95.1223 273.306 95.0795 273.372 95.0055C273.439 94.9316 273.474 94.8326 273.472 94.7304C273.47 94.6281 273.43 94.531 273.361 94.4603C273.292 94.3897 273.199 94.3513 273.103 94.3536ZM220.256 6.78404C218.334 7.28835 216.576 8.34028 215.17 9.82777C213.763 11.3153 212.76 13.1826 212.269 15.2308C210.448 22.6787 216.763 30.7925 224.029 29.4957C225.617 29.1374 227.119 28.4367 228.445 27.4362C229.77 26.4358 230.891 25.1568 231.738 23.6776C232.565 22.045 233.035 20.233 233.111 18.3783C233.188 16.5235 232.87 14.6744 232.181 12.9702C231.196 9.95596 228.277 5.13674 220.256 6.78404ZM224.226 21.5571C221.06 23.8879 217.353 19.647 218.813 17.0358C221.437 12.3743 226.095 15.8967 226.21 17.6492C226.208 18.4272 226.024 19.1925 225.675 19.8751C225.325 20.5577 224.821 21.1359 224.209 21.5571H224.226ZM224.029 13.5835C222.922 13.2114 221.731 13.2417 220.641 13.6697C219.552 14.0978 218.627 14.8994 218.009 15.9493C217.505 16.8945 217.314 17.9943 217.469 19.0698C217.624 20.1453 218.115 21.1331 218.862 21.8726C219.457 22.483 220.189 22.9201 220.988 23.1419C221.786 23.3638 222.625 23.363 223.423 23.1397C224.221 22.9164 224.952 22.478 225.547 21.8665C226.141 21.255 226.578 20.4908 226.817 19.647C228.217 20.6278 229.782 21.3065 231.426 21.6447C230.845 23.1586 229.955 24.5142 228.819 25.6119C227.684 26.7097 226.333 27.5218 224.865 27.9886C218.305 30.0214 212.465 23.6601 213.204 16.7905C213.42 15.1906 213.973 13.664 214.822 12.3261C215.671 10.9881 216.794 9.87372 218.105 9.06699C219.416 8.26027 220.881 7.78229 222.391 7.66913C223.9 7.55598 225.413 7.81061 226.817 8.41381C225.518 9.88028 224.558 11.6505 224.012 13.5835H224.029Z" fill="#1842B4"/>
<path d="M205.495 36.8735C209.497 36.6457 282.781 36.0499 288.128 34.35C292.244 33.5439 293.655 31.5111 293.442 27.0774C293.442 25.6053 293.671 8.72931 293.245 5.73263C292.868 2.03498 291.014 0.282538 287.111 0.0547202C283.83 -0.278244 207.808 0.983515 204.215 1.80716C201.296 2.42052 199.295 3.55961 198.901 7.06449C198.721 8.13348 199.508 27.9186 199.607 29.8462C199.836 34.0171 201.788 36.488 205.495 36.8735ZM211.892 35.6819C210.926 35.5575 209.998 35.2053 209.175 34.6506C208.353 34.0959 207.656 33.3528 207.135 32.4749C205.979 30.3474 205.384 27.925 205.413 25.4651C205.232 22.486 204.708 11.4456 204.642 8.78188C204.642 7.69537 204.642 4.08534 207.135 2.78853C210.989 2.36794 282.797 1.22886 285.864 1.334C287.504 1.334 289.719 1.4742 290.965 2.82358C292.802 4.80384 292.212 8.08091 292.326 26.9197C292.687 31.7214 290.982 32.7728 286.783 33.4212C283.01 34.0346 212.548 35.6819 211.924 35.6819H211.892ZM203.527 6.55628C203.313 8.13348 204.183 23.2045 204.265 25.2023C204.462 30.1617 205.79 33.6841 208.414 35.7169H206.774C202.772 35.7169 200.951 33.6666 200.771 29.303C200.673 26.8145 199.918 8.27367 200.082 7.22221C200.427 4.03276 202.444 3.33179 205.118 2.9813C204.289 3.98909 203.748 5.22986 203.559 6.55628H203.527Z" fill="#1842B4"/>
<path d="M242.235 11.0952C242.842 11.0952 261.671 10.587 261.507 10.587C261.592 10.5679 261.668 10.5182 261.722 10.4465C261.777 10.3747 261.806 10.2851 261.806 10.1927C261.806 10.1003 261.777 10.0108 261.722 9.93898C261.668 9.8672 261.592 9.81758 261.507 9.79842C260.113 9.79842 243.859 9.50051 242.202 9.79842C242.076 9.84733 241.967 9.93751 241.891 10.0562C241.816 10.1748 241.777 10.3159 241.781 10.4595C241.784 10.603 241.83 10.7417 241.912 10.8558C241.993 10.9699 242.106 11.0537 242.235 11.0952ZM267.281 16.5979C264.919 16.8432 241.202 15.9845 241.038 17.2638C241.038 17.5092 241.251 17.7019 241.415 17.737C243.482 17.9999 267.199 17.4566 267.363 17.4391C267.414 17.4333 267.465 17.4167 267.51 17.3903C267.556 17.3638 267.596 17.328 267.629 17.2849C267.662 17.2418 267.686 17.1922 267.701 17.139C267.716 17.0857 267.721 17.0299 267.715 16.9747C267.71 16.9194 267.695 16.8659 267.67 16.8171C267.645 16.7682 267.611 16.7251 267.571 16.6901C267.531 16.6551 267.484 16.629 267.435 16.6131C267.385 16.5973 267.332 16.5921 267.281 16.5979ZM266.805 23.3273C262.754 23.3273 242.333 23.2221 241.267 23.4149C241.162 23.4446 241.07 23.5105 241.003 23.6025C240.937 23.6944 240.901 23.8071 240.901 23.9231C240.901 24.0391 240.937 24.1518 241.003 24.2438C241.07 24.3357 241.162 24.4016 241.267 24.4313C242.399 24.6241 265.148 24.0633 266.822 24.0107C266.894 23.9912 266.957 23.946 267.002 23.8827C267.047 23.8193 267.071 23.7415 267.069 23.662C267.067 23.5825 267.04 23.5061 266.992 23.4453C266.944 23.3844 266.878 23.3428 266.805 23.3273ZM34.9151 135.589C46.0191 134.625 51.9074 119.344 43.28 110.862C42.9684 110.564 43.5589 109.898 34.4722 123.935C23.4829 112.807 24.0734 113.228 23.8274 113.42C15.1344 122.586 23.7454 136.57 34.9151 135.589Z" fill="#1842B4"/>
<path d="M33.7011 118.187C34.0128 118.555 33.8651 118.608 41.2952 105.219C41.313 105.189 41.325 105.156 41.3306 105.121C41.3361 105.086 41.335 105.051 41.3273 105.016C41.3197 104.982 41.3056 104.95 41.286 104.921C41.2664 104.893 41.2416 104.869 41.2132 104.851C38.593 103.378 35.5911 102.869 32.673 103.405C29.7548 103.94 27.0836 105.49 25.0737 107.813C24.8769 108.075 24.5817 107.567 33.7011 118.187ZM16.5611 183.115C16.9818 183.112 17.3923 182.976 17.7409 182.725C18.0895 182.473 18.3606 182.117 18.5202 181.701C18.6798 181.285 18.7206 180.828 18.6376 180.387C18.5546 179.947 18.3514 179.542 18.0537 179.225C18.8738 177.805 24.188 168.465 25.7462 165.941C26.15 166.141 26.6007 166.206 27.0396 166.127C27.4784 166.049 27.885 165.832 28.2065 165.503L35.7842 171.742C35.6606 172.132 35.6386 172.551 35.7204 172.954C35.8022 173.357 35.9849 173.729 36.2488 174.03C36.5128 174.33 36.8482 174.549 37.2193 174.662C37.5904 174.775 37.9833 174.778 38.356 174.672C38.7287 174.565 39.0674 174.352 39.3358 174.056C39.6043 173.76 39.7925 173.391 39.8804 172.99C39.9682 172.589 39.9525 172.169 39.8348 171.776C39.7171 171.384 39.5019 171.033 39.2122 170.76L41.9021 166.975C42.3835 167.21 42.9293 167.248 43.4348 167.079C43.9403 166.911 44.3699 166.55 44.6412 166.064L52.4813 168.903C52.4389 169.28 52.4854 169.662 52.6165 170.015C52.7476 170.368 52.9591 170.68 53.2319 170.923C53.5047 171.167 53.83 171.333 54.1784 171.408C54.5268 171.483 54.8871 171.463 55.2267 171.351C55.5662 171.24 55.8742 171.039 56.1227 170.767C56.3711 170.496 56.5522 170.163 56.6493 169.797C56.7465 169.432 56.7567 169.047 56.679 168.676C56.6013 168.306 56.4382 167.962 56.2045 167.676C56.8606 165.17 62.5357 146.647 63.1097 144.894C63.6605 144.843 64.1716 144.567 64.5367 144.123C66.0949 145.438 70.7694 149.17 72.2784 150.257C72.1922 150.62 72.1909 150.999 72.2747 151.363C72.3586 151.726 72.5249 152.062 72.759 152.34C72.9931 152.619 73.2878 152.831 73.617 152.959C73.9462 153.087 74.2998 153.126 74.6466 153.073C74.9933 153.02 75.3225 152.877 75.6051 152.655C75.8877 152.434 76.1149 152.142 76.2667 151.805C76.4185 151.468 76.4901 151.095 76.4754 150.722C76.4606 150.348 76.3599 149.983 76.182 149.661C80.5449 142.231 80.7418 142.353 80.2825 142.02C80.1961 141.963 80.0929 141.942 79.9929 141.961C79.8929 141.981 79.8032 142.039 79.7413 142.125C78.9704 143.317 75.3291 148.785 75.3291 148.785C74.9412 148.581 74.5055 148.503 74.0766 148.563C73.6477 148.622 73.2447 148.815 72.9181 149.118C71.3927 147.979 66.5541 144.281 65.0123 143.002C65.0782 142.597 65.0406 142.181 64.9035 141.798C64.7663 141.414 64.5348 141.078 64.2333 140.823C63.9318 140.569 63.5715 140.406 63.1906 140.352C62.8097 140.299 62.4223 140.356 62.0694 140.518C61.7164 140.68 61.411 140.941 61.1855 141.274C60.96 141.606 60.8226 141.997 60.7881 142.406C60.7535 142.815 60.823 143.226 60.9891 143.596C61.1553 143.966 61.4119 144.282 61.732 144.509C60.3214 148.609 56.2209 162.804 55.1712 166.94C54.7771 166.831 54.3624 166.843 53.9739 166.973C53.5855 167.103 53.2389 167.347 52.9733 167.676C51.3332 167.08 46.4126 165.486 44.92 164.977C44.92 164.378 44.6971 163.803 44.3003 163.379C43.9035 162.955 43.3653 162.717 42.8042 162.717C42.243 162.717 41.7048 162.955 41.308 163.379C40.9112 163.803 40.6883 164.378 40.6883 164.977C40.6919 165.478 40.8473 165.964 41.1312 166.362L38.1952 170.27C37.914 170.204 37.6231 170.201 37.3408 170.261C37.0585 170.322 36.7909 170.444 36.555 170.62L28.7313 164.294C28.8167 163.751 28.7141 163.194 28.4426 162.727C28.1711 162.259 27.7494 161.914 27.2566 161.755C26.7637 161.596 26.2335 161.634 25.7652 161.863C25.297 162.092 24.9228 162.495 24.7129 162.997C24.5497 163.358 24.4833 163.761 24.5209 164.16C24.5586 164.559 24.6988 164.939 24.9261 165.258C23.3843 167.729 17.7913 177.279 16.9876 178.664C16.6932 178.585 16.3863 178.574 16.0879 178.633C15.7894 178.692 15.5063 178.819 15.2577 179.005C15.0092 179.191 14.801 179.432 14.6474 179.712C14.4937 179.992 14.3982 180.304 14.3673 180.626C14.3364 180.949 14.3708 181.275 14.4682 181.582C14.5657 181.889 14.7238 182.17 14.9319 182.406C15.14 182.642 15.3932 182.828 15.6743 182.95C15.9554 183.072 16.2579 183.129 16.5611 183.115ZM45.1004 189.319C44.9786 189.319 44.8618 189.37 44.7757 189.462C44.6896 189.554 44.6412 189.679 44.6412 189.809C44.6412 189.94 44.6896 190.064 44.7757 190.156C44.8618 190.248 44.9786 190.3 45.1004 190.3C47.9708 190.3 81.6603 188.898 82.8248 188.881C82.9013 188.862 82.9697 188.817 83.0188 188.752C83.0678 188.686 83.0945 188.605 83.0945 188.521C83.0945 188.438 83.0678 188.356 83.0188 188.291C82.9697 188.226 82.9013 188.18 82.8248 188.162C78.2487 188.18 48.0364 188.968 45.1004 189.319ZM59.5177 176.789C59.6221 176.789 59.7222 176.744 59.7961 176.666C59.8699 176.587 59.9114 176.48 59.9114 176.368C59.9114 176.257 59.8699 176.15 59.7961 176.071C59.7222 175.992 59.6221 175.948 59.5177 175.948C58.222 175.948 53.531 175.65 52.4321 175.702C52.2407 175.702 52.0571 175.783 51.9218 175.928C51.7864 176.073 51.7104 176.269 51.7104 176.473C51.7104 176.678 51.7864 176.874 51.9218 177.019C52.0571 177.163 52.2407 177.244 52.4321 177.244C53.5146 177.385 58.1563 176.911 59.5177 176.789ZM41.9841 179.032H34.9149C34.762 179.04 34.6139 179.091 34.486 179.181C34.3582 179.271 34.2553 179.396 34.1882 179.543C34.1211 179.69 34.0923 179.853 34.1047 180.016C34.1171 180.179 34.1703 180.335 34.2588 180.469C34.7016 181.17 35.0461 180.627 42.0169 179.996C42.1034 179.952 42.1759 179.881 42.2256 179.794C42.2753 179.706 42.2999 179.605 42.2964 179.502C42.2929 179.4 42.2615 179.301 42.206 179.217C42.1505 179.134 42.0734 179.069 41.9841 179.032ZM14.0188 188.39C14.3633 188.39 19.3495 187.812 20.4484 187.759C20.5702 187.759 20.687 187.707 20.7731 187.615C20.8592 187.523 20.9076 187.398 20.9076 187.268C20.9076 187.138 20.8592 187.013 20.7731 186.921C20.687 186.829 20.5702 186.778 20.4484 186.778C19.8087 186.778 14.2649 187.023 13.8876 187.216C13.7875 187.28 13.7069 187.374 13.6555 187.486C13.6041 187.599 13.5842 187.724 13.598 187.848C13.6119 187.972 13.659 188.089 13.7336 188.185C13.8083 188.281 13.9073 188.353 14.0188 188.39Z" fill="#1842B4"/>
<path d="M71.9014 158.002H72.1638C79.1346 157.336 78.8886 157.845 79.1839 157.494C79.2384 157.425 79.2741 157.342 79.2872 157.253C79.3002 157.164 79.2901 157.073 79.2579 156.99C79.2257 156.906 79.1727 156.834 79.1047 156.781C79.0367 156.728 78.9562 156.696 78.8722 156.688C76.4283 156.688 74.1321 156.46 71.9342 156.565C70.9993 156.583 71.0813 158.002 71.9014 158.002ZM35.2268 142.703C35.0484 142.703 34.8774 142.779 34.7512 142.914C34.6251 143.049 34.5543 143.231 34.5543 143.422C34.5543 143.613 34.6251 143.795 34.7512 143.93C34.8774 144.065 35.0484 144.14 35.2268 144.14C37.5722 144.14 46.7081 143.247 48.9223 143.001C49.0272 142.98 49.1219 142.92 49.1899 142.832C49.258 142.744 49.2952 142.634 49.2952 142.519C49.2952 142.405 49.258 142.295 49.1899 142.207C49.1219 142.119 49.0272 142.059 48.9223 142.038C46.6425 142.23 37.4902 142.493 35.2268 142.703ZM34.1114 146.804C33.9795 146.839 33.864 146.924 33.7868 147.044C33.7095 147.163 33.6758 147.309 33.6919 147.453C33.708 147.597 33.7729 147.73 33.8743 147.827C33.9757 147.924 34.1067 147.978 34.2426 147.978C36.8341 147.978 47.0033 146.997 49.562 146.979C49.6751 146.979 49.7836 146.931 49.8636 146.846C49.9435 146.761 49.9885 146.645 49.9885 146.524C49.9885 146.403 49.9435 146.287 49.8636 146.202C49.7836 146.116 49.6751 146.068 49.562 146.068C44.4022 145.947 39.2406 146.193 34.1114 146.804ZM48.2499 149.608C43.9575 149.542 39.6649 149.723 35.3908 150.151C34.6035 150.257 34.5707 151.536 35.3908 151.536C36.8505 151.536 44.8219 150.66 48.2663 150.519C48.3223 150.518 48.3775 150.505 48.4288 150.481C48.4802 150.457 48.5266 150.423 48.5654 150.38C48.6043 150.337 48.6348 150.286 48.6552 150.23C48.6756 150.174 48.6856 150.115 48.6845 150.055C48.6834 149.995 48.6713 149.936 48.6489 149.881C48.6265 149.826 48.5942 149.777 48.5538 149.735C48.5135 149.694 48.4658 149.661 48.4137 149.639C48.3615 149.618 48.3059 149.607 48.2499 149.608ZM53.6461 111.86C54.4498 111.86 62.6343 110.949 64.2417 110.827C64.3548 110.827 64.4633 110.779 64.5433 110.693C64.6232 110.608 64.6682 110.492 64.6682 110.371C64.6682 110.25 64.6232 110.134 64.5433 110.049C64.4633 109.963 64.3548 109.915 64.2417 109.915C63.438 109.915 54.663 110.196 53.6953 110.266C52.7276 110.336 52.7276 111.86 53.6461 111.86ZM55.3355 115.4C57.9106 115.4 67.9485 114.384 70.4908 114.209C70.5835 114.189 70.6669 114.135 70.7267 114.057C70.7866 113.978 70.8193 113.88 70.8193 113.779C70.8193 113.678 70.7866 113.58 70.7267 113.502C70.6669 113.424 70.5835 113.37 70.4908 113.35C67.9321 113.473 57.8286 113.525 55.3191 113.806C55.1404 113.836 54.9779 113.934 54.8613 114.082C54.7446 114.23 54.6815 114.417 54.6835 114.611C54.6855 114.804 54.7524 114.99 54.8721 115.135C54.9918 115.28 55.1562 115.374 55.3355 115.4Z" fill="#1842B4"/>
</svg>
